<svg version="1.1" id="logo" xmlns="http://www.w3.org/2000/svg" xmlns:xlink="http://www.w3.org/1999/xlink" x="0px" y="0px"
	 viewBox="0 0 514.9 570.3" style="enable-background:new 0 0 514.9 570.3;" xml:space="preserve">
<g>
	<path class="st0c" d="M504.3,323.1l-41.5,73.4c-3.1,5.5-8.8,8.8-15.1,8.9l-73.9,0.7L337,471.2c-3.3,5.7-9.2,8.9-15.3,8.9
		c-2.9,0-5.9-0.8-8.6-2.3c-8.4-4.7-11.4-15.4-6.6-23.8l36.6-64.8l-32.7-55.4l-36.4,0.3c-0.1,0-0.1,0-0.2,0
		c-9.6,0-17.4-7.7-17.5-17.3c-0.1-9.7,7.6-17.6,17.3-17.7l36.4-0.3l31.7-56l-37.8-64.1c-4.9-8.4-2.1-19.1,6.2-24
		c8.4-4.9,19.1-2.1,24,6.2l38,64.4l73.9-0.7c0.1,0,0.1,0,0.2,0c6.2,0,12,3.3,15.1,8.6l42.8,72.6c0.4,0.6,0.7,1.3,1,2V164.6
		c0-14.1-7.6-27.2-19.8-34.2l-208-120.1c-6-3.5-12.9-5.3-19.8-5.3c-7,0-13.8,1.8-19.8,5.3l-208,120.1c-12.2,7-19.8,20.1-19.8,34.2
		V307l39.6-70.2c3.1-5.5,8.8-8.8,15.1-8.9l74.4-0.7l31.5-55.8l-38-64.4c-4.9-8.4-2.1-19.1,6.2-24c8.4-4.9,19.1-2.1,24,6.2l37.7,63.9
		l37-0.3c0.1,0,0.1,0,0.2,0c9.6,0,17.4,7.7,17.5,17.3c0.1,9.7-7.6,17.6-17.3,17.7l-36.4,0.3l-31.9,56.5l37.6,63.7
		c3.2,5.4,3.3,12.1,0.2,17.5l-41.5,73.4c-3.1,5.5-8.8,8.8-15.1,8.9l-84.3,0.8c-0.1,0-0.1,0-0.2,0c-6.2,0-12-3.3-15.1-8.6L9.9,330.4
		v74.4c0,14.1,7.6,27.2,19.7,34.2l208,120.1c6,3.5,12.9,5.3,19.8,5.3c6.9,0,13.8-1.8,19.9-5.3l208-120.1c12.2-7,19.8-20.1,19.8-34.2
		v-83.3C504.9,322,504.6,322.6,504.3,323.1z M278.4,152.4c9.7,0,17.5,7.8,17.5,17.5s-7.8,17.5-17.5,17.5s-17.5-7.8-17.5-17.5
		S268.8,152.4,278.4,152.4z M233,334c-9.7,0-17.5-7.8-17.5-17.5S223.4,299,233,299s17.5,7.8,17.5,17.5S242.7,334,233,334z"/>
	<polygon class="st0c" points="372.1,260.2 340.6,316 373.2,371.2 437.3,370.6 468.8,314.8 436.2,259.6 	"/>
</g>
</svg>
