<?xml version="1.0" encoding="utf-8"?>
<!-- Generator: Adobe Illustrator 21.1.0, SVG Export Plug-In . SVG Version: 6.00 Build 0)  -->
<svg version="1.1" id="Layer_1" xmlns="http://www.w3.org/2000/svg" xmlns:xlink="http://www.w3.org/1999/xlink" x="0px" y="0px"
	 viewBox="0 0 402 192" style="enable-background:new 0 0 402 192;" xml:space="preserve">
<style type="text/css">
	.st0{fill:#FFFFFF;}
</style>
<g>
	<g>
		<g>
			<path class="st0" d="M149,81.1c4.6,0,7.2,0.8,9.3,2.2c2.2,1.5,3.3,3.8,3.3,7c0,5.6-5.3,8.4-8.4,9.2v0.1
				c5.8,0.8,11.1,4.3,11.1,10.8c0,4.5-2.2,7.7-6,9.9c-3.3,1.8-7.4,2.4-12.2,2.4h-14.7v-1.5c5.4-0.4,5.9-0.8,5.9-7.8V90.4
				c-0.1-7-0.4-7.4-5.5-7.8v-1.5H149z M142.7,99.2h4c6.1,0,9.2-2.9,9.2-8.1c0-3.8-1.6-8.1-9.2-8.1c-2.1,0-3,0.2-3.5,0.4
				c-0.4,0.1-0.6,0.4-0.6,1.7V99.2z M142.7,101.1v14c0,4.3,0.8,5.8,5.5,5.7c5.4,0,9.9-2.7,9.9-9.5c0-7-5.1-10.2-11.7-10.2H142.7z"/>
			<path class="st0" d="M186.6,113.5c0,7,0.5,7.4,5.8,7.8v1.5h-17v-1.5c5.4-0.4,5.9-0.8,5.9-7.8V90.4c0-7-0.5-7.4-5.6-7.8v-1.5h16.3
				c4.1,0,7.7,0.6,10.1,2.2c2.6,1.6,4.2,4.5,4.2,8.2c0,5.3-3.3,9.1-8.5,11.2c1.2,1.9,3.8,6.3,5.7,9.2c2.3,3.4,3.6,5.1,5.4,7
				c1.3,1.6,2.5,2.6,4.8,3.2l-0.1,1.2h-0.9c-7.4-0.2-9.6-2.4-12-6c-2-2.9-4.7-7.6-6.5-10.6c-1-1.7-2-2.3-4-2.3h-3.5V113.5z
				 M186.6,102.6h3.7c2.6,0,4.7-0.3,6.4-1.7c2.8-2.2,3.7-5.3,3.7-8.5c0-6.7-4.9-9.4-9.7-9.4c-2.2,0-3.1,0.1-3.6,0.3
				c-0.4,0.1-0.6,0.4-0.6,1.7V102.6z"/>
			<path class="st0" d="M263.5,101.4c0,13.3-9.3,22.3-21.5,22.3c-12.1,0-20.7-9.2-20.7-21.3c0-10.8,7.6-22.2,21.8-22.2
				C254.2,80.2,263.5,88.7,263.5,101.4z M241.5,82.3c-7.6,0-14,6.2-14,18.2c0,12.4,6.5,21.1,15.8,21.1c7.7,0,14-6,14-17.9
				C257.3,89.9,250.6,82.3,241.5,82.3z"/>
			<path class="st0" d="M285.4,82.6l-2,0.3c-2.9,0.4-3.3,1-2.4,3.8l8.6,27.3h0.1l10.2-32.1h1.5l11.6,32.1h0.1
				c2.6-8.1,6.3-21.6,7.4-26.2c0.9-3.7,0.6-4.5-2.3-4.8l-1.9-0.3v-1.5h13.6v1.5c-4.2,0.5-4.7,0.8-6.8,6.6
				c-0.6,1.6-5.3,16.3-10.6,33.9H311l-11.5-31.3l-0.1,0.1l-10.4,31.2h-1.8L276,88.7c-1.7-5.3-2.7-5.8-6.3-6.1v-1.5h15.7V82.6z"/>
			<path class="st0" d="M377.4,123.2h-1.7L348,89.5h-0.1v16.3c0,6.7,0.3,10.2,0.5,12.2c0.3,2.2,2,3.1,6.3,3.3v1.5h-15.4v-1.5
				c3.5-0.1,5.2-1.1,5.5-3.3c0.3-2,0.5-5.4,0.5-12.2V91.9c0-4.6-0.1-5.6-1.2-7.1c-1.2-1.5-2.9-2-5.6-2.2v-1.5h9.3l27,32.3h0.1V98.1
				c0-6.7-0.3-10.2-0.5-12.2c-0.3-2.2-2-3.1-6.3-3.3v-1.5h15.4v1.5c-3.5,0.1-5.2,1.1-5.5,3.3c-0.3,2-0.5,5.4-0.5,12.2V123.2z"/>
		</g>
	</g>
	<g>
		<path class="st0" d="M23,145.9c0,0,0.4-0.8,1.8-0.8c1.8,0.1,3.6,0.6,5.1,0.8c0.7,0.1,1.3,0.2,1.7,0.1v17.8c0,0-0.2,0.2-0.8,0.3
			c-0.4,0.1-0.8,0.1-1.5,0c-0.4-0.1-0.8-0.1-1.3-0.3c-3.5-1-5,0.2-5,0.2l1.6-1.7l-1.6,1.6V145.9z M11.7,163.8V146l0,0.1
			c1.5,0.3,4.1-0.8,6.8-0.9c1.4,0,1.8,0.8,1.8,0.8l0,0v18l-0.3-0.2c0,0-1.2-0.8-4.7,0.1c-0.1,0-0.2,0.1-0.3,0.1
			C13,164.3,11.7,163.8,11.7,163.8 M0,81.1V136c0,18.1,4.5,30.7,14.2,39.5c9.6,8.8,24,13.2,38.1,16.5c14.5-3.4,28.4-7.7,38.1-16.5
			c9.7-8.8,14.2-21.4,14.2-39.5V81.1H0z M68.5,91.3h2.6v-3.8c2.7,0.6,7-0.8,8.9-0.8c2.2,0,3.2,0.9,3.2,0.9s1.1-0.9,3.2-0.9
			c1.9,0,6.3,1.4,8.9,0.8v3.8h2.6V112H85.8v1.5h-5.1V112H68.5V91.3z M6.8,91.2h2.6v-3.7c2.6,0.6,7.1-0.8,9-0.7
			c2.1,0,3.2,0.9,3.2,0.9s1.1-0.9,3.2-0.9c1.9,0,6.2,1.4,8.8,0.8v3.7h2.8V112H24.2v1.5h-5V112L6.8,112V91.2z M36.4,168H24.2l0,1.6
			l-5.1-0.1V168l-11.3,0l-1-1.5l0-19.2h2.6v-3.8c2.7,0.6,7-0.8,8.9-0.8c2.2,0,3.3,0.9,3.3,0.9s1.1-0.9,3.2-0.9
			c1.9,0,6.3,1.4,8.9,0.8l0,3.8l2.6-0.1V168z M96.8,168h-11v1.5h-5.1V168l-12.3,0l0-20.7h2.6v-3.8c2.7,0.6,7-0.8,8.9-0.8
			c2.2,0,3.3,0.9,3.3,0.9s1.1-0.9,3.2-0.9c1.9,0,6.3,1.4,8.9,0.8v3.8h2.6v18.6L96.8,168z M103.4,137h-42v51.3l-9.1,2.4l-9.1-2.4V137
			h-42v-16.7h42v-38h18.3v38h41.9V137z M81.6,107.8c0,0-1.5-1.1-5-0.1c-2.7,0.8-3.6,0-3.6,0V89.9c1.5,0.3,4.1-0.8,6.8-0.9
			c1.4,0,1.8,0.8,1.8,0.8V107.8z M84.3,107.8v-18c0,0,0.4-0.8,1.8-0.8c2.7,0.1,5.3,1.1,6.8,0.9v17.8c0,0-1,0.7-3.6,0
			C85.8,106.7,84.3,107.8,84.3,107.8z M20.3,107.8c0,0-1.5-1.1-5-0.1c-2.7,0.8-3.7,0-3.7,0V89.9c1.5,0.3,4.2-0.8,6.8-0.9
			c1.4,0,1.8,0.8,1.8,0.8V107.8z M23,107.9V89.8c0,0,0.4-0.8,1.8-0.8c2.6,0.1,5.3,1,6.8,0.8v17.9c0,0-1.1,0.7-3.8-0.1
			C24.5,106.7,23,107.9,23,107.9z M84.7,145.8c0,0,0.4-0.8,1.8-0.8c1.8,0.1,3.6,0.6,5.1,0.8c0.7,0.1,1.3,0.2,1.7,0.1v17.8
			c0,0-0.2,0.2-0.8,0.3c-0.4,0.1-0.8,0.1-1.5,0c-0.4-0.1-0.8-0.1-1.3-0.3c-3.5-1-5,0.1-5,0.1L84.7,145.8z M82,163.8L82,163.8
			c-0.1,0-1.5-1.1-5-0.1c-0.1,0-0.2,0.1-0.3,0.1c-1.9,0.5-2.9,0.2-3.2,0l-0.1-0.1v-17.8l0.1,0c1.5,0.3,4.1-0.8,6.7-0.9
			c1.4,0,1.8,0.8,1.8,0.8V163.8z"/>
		<g>
			<path class="st0" d="M36.2,27.8c0.2,0.3,0.5,0.8,0.9,1.4c1,1.7,2.6,8.1,4.6,10.2c1.1-0.7,3-1.7,4-2.1c-0.2-0.4-1.4-2.4-2.7-4
				c-2.4-3.3-4.2-5-4.4-5.3C38,28,36.9,28,36.2,27.8"/>
			<path class="st0" d="M54.5,36.3c0.5-3.3-0.6-8.9-1.3-10.3c-0.8-0.2-1.7-0.5-2.4-0.8c-0.1,0.4-0.7,2.7-0.9,6
				c-0.1,1.8-0.1,4.5,0.3,5.1C51.2,36.2,53,36.1,54.5,36.3"/>
			<path class="st0" d="M70.3,55.9c0-10-7.8-17.9-17.8-17.9c-9.8,0-17.8,8-17.8,17.9c0,0.5,0.1,1.4,0.3,2.4c5.1-1.2,11.9-1,14.9,1.4
				c4.8-2.7,12-2.8,17.1,0c2.1-1.1,2.9-1.2,3.2-1.3C70.2,57.7,70.3,56.4,70.3,55.9 M48.6,49.8c-0.1,1.2-1,2-2.2,2
				c-1.1-0.1-2-1-2-2.2l0-0.2c-0.2-0.3-1.1-0.6-2.5,0.3c-0.7,0.4-1.5,0.1-0.3-0.9c1.3-1.1,2.5-1.8,3.6-1.9l0,0
				c1.8-0.1,4.2,0.2,5.3,0.7c0.5,0.2,0,2.4-0.1,2.4c-0.4-0.1-1.2-0.4-1.9-0.3L48.6,49.8z M54.5,56.1c-0.4,1.1-4.1,1.4-4.8,0
				c-0.3-0.5-0.6-2-0.1-1.7c0.8,0.5,3.8,0.1,4.4,0c0.5-0.1,0.2-0.8,0.5-0.7C54.9,53.8,54.9,55.1,54.5,56.1 M63.3,50.2
				c-0.9-0.8-2.2-1.1-2.6-0.8l0,0.2c0.1,1.1-0.7,2.2-1.9,2.3c-1.1,0.1-2.1-0.8-2.2-1.9v-0.1c-0.7-0.2-1.9,0.2-2.1,0.1
				c-0.1,0-0.6-2.2,0.1-2.4c1.8-0.7,7.5-1.1,9.2,2.2C64,50.1,63.8,50.6,63.3,50.2"/>
			<path class="st0" d="M64.4,27.6c-2.1,1.8-5.3,6.1-5.7,9.6c1,0.4,3.6,1.6,3.9,1.9c2.6-2.6,2.1-5.4,3.1-7.5
				c0.4-0.9,0.9-1.7,1.1-2.1C66,29,65.1,28.3,64.4,27.6"/>
			<path class="st0" d="M76.9,34.4c-0.5,0.3-1.5,0.9-1.9,1.2c-2.5,1.9-7.8,4.4-9.1,5.8c1,0.9,2.4,2.5,3.1,3.8c0.6,0,2.3-1.4,5.8-5.5
				c1.1-1.3,2.3-2,4.4-3.2C78.3,35.9,77.6,35.2,76.9,34.4"/>
			<path class="st0" d="M33.7,49.4c-1.2-1.1-3.5-2.1-6.5-1.9c-6.1,0.5-10.2,0.1-12.5-0.2c-4-0.6-6.4,0-8.4,0c-6,0,0.2,0.5,0.9,0.8
				c2.8,1.1,8.6,2.6,13.1,2.2c2.2-0.2,5.9,1.2,6.5,1.4c1.6,0.6,4.6,1.5,6.1,1.5C33,52.5,33.4,50.3,33.7,49.4"/>
			<path class="st0" d="M38.7,41.8c-3.1-2.5-5.9-3-10.4-5.2c-1-0.5-2.7-1.7-2.8-1.7c-0.1-0.1-0.3-0.2-0.6-0.4
				c-0.3,0.9-0.8,2-1.3,2.7c0.7,0.9,5.8,6.7,12.2,8.5C36.4,44.5,37.5,43.1,38.7,41.8"/>
			<path class="st0" d="M103.5,46.3c-0.3,0-1.5-0.2-2.2-0.2c-1,0-7.4,0-9.1,0.3c-3.6,0.6-10.5,0.3-14.3,0.1c-2.8-0.1-6.1,1-7.1,1.5
				c0,0,1.1,2.7,1.2,4.6c1.2,0.2,2.4-1.3,5.8-1.3c3.6,0.1,12.4-0.4,16.9-2.2c3.3-1.3,6.1-2,8.4-2.4C103.8,46.7,105,46.6,103.5,46.3"
				/>
			<path class="st0" d="M18.2,21.9c-2.7,0.6-5.4,1.2-6.2,5.5"/>
			<path class="st0" d="M11,23.6c-0.3-0.2-0.5-0.3-0.6-0.4c-5.1-3.4-2.8,1-0.8,2.9C9.6,26.2,9.7,24.6,11,23.6"/>
			<path class="st0" d="M30.4,11.6c-0.6-0.8-1.6-1.9-2.9-3.1c-0.9-0.8-1.6-0.4-1.1,1.2c0.2,0.6,0.4,1.1,0.6,1.7
				C27,11.4,28.5,11.2,30.4,11.6"/>
			<path class="st0" d="M53.7,6.6C53.6,5,53.4,3.8,53.1,3c-0.6-1.9-1.3-0.4-1.4,0.2c-0.1,0.8-0.3,1.9-0.5,3.1
				C51.3,6.3,53,7.3,53.7,6.6"/>
			<path class="st0" d="M75.4,12.9c0.2-0.4,0.3-0.7,0.4-0.9c1.1-2.3,0.5-2.9-0.6-1.9c-1.3,1.2-2.1,2-2.7,2.6c0,0,0.2,0.8,0.9,1.1
				c0.6,0.3,1.6,0,1.6,0S75.1,13.5,75.4,12.9"/>
			<path class="st0" d="M97.2,22.2c0.4-0.5,1-1.2,1.3-1.5c0.3-0.4,1.4-2.2-1.5-0.7c-0.2,0.1-0.6,0.3-1,0.6
				C96,20.6,97.1,21.3,97.2,22.2"/>
			<path class="st0" d="M23.6,28.4c0.3-0.2,0.7-0.2,1-0.1c3,1,7.4,0.3,9.4-2.9c0.3-0.5,0.8-0.6,1.3-0.4c2.1,0.9,6.4,1.2,11.6-4.1
				c0.4-0.4,1-0.4,1.5,0c4.6,3.7,9.4,3.9,14.2,0.7c0.3-0.2,0.7-0.5,1-0.3c0.3,0.1,0.6,0.4,0.7,0.8c1.5,7.2,9,6.6,11.3,6.2
				c0.3,0,0.6,0,0.8,0.2c0.2,0.2,0.4,0.4,0.4,0.7c0.2,1.7,2.1,4.9,5.3,6.6c2.7,1.4,5.7,1.3,8.9-0.3c0.3-0.2,0.7-0.2,1,0
				c4.1,2.2,7.7,2.3,10,0.4c1.6-1.4,2.3-3.6,1.6-5.6c-0.7-2.2-2.9-3.5-5.9-3.7c-0.5,0-0.9-0.4-1-0.9c-0.3-1.7-1.2-3.2-2.8-4.1
				C91.5,20,88,19.8,84.5,21c-0.3,0.1-0.6,0.1-0.9-0.1c-0.3-0.2-0.5-0.5-0.5-0.8c-0.2-1.3-0.8-3.2-2.5-4.2c-1.8-1.1-4.4-1.1-7.7,0.1
				c-0.5,0.2-1.1,0-1.3-0.5c-2.1-4.1-5.1-6.7-8.6-7.7c-3.1-0.8-6.6-0.2-9.6,1.7c-0.4,0.2-0.9,0.2-1.2,0c-3-2.2-6.5-2.9-9.7-2
				c-3.1,1-5.5,3.4-6.7,6.9c-0.1,0.3-0.3,0.5-0.6,0.6c-0.3,0.1-0.6,0.1-0.9,0c-4.8-1.9-8.7-1.9-11.3,0.1c-2.2,1.7-2.9,4.5-2.8,5.3
				c0.1,0.6-0.3,1.1-0.8,1.2l-1.1,0.3c-2.7,0.6-5.4,1.2-6.2,5.5c-0.1,0.5-0.5,0.8-1,0.9c-4.6,0.5-7.6,2.2-8.3,4.7
				c-0.5,1.8,0.4,3.8,2,4.9c1.6,1.1,3.6,1,5.4-0.3c0.3-0.2,0.7-0.3,1-0.1c2.7,1,7.1,0.8,9.8-1.3c1.9-1.6,2.7-3.9,2.3-6.8
				C23.1,29,23.3,28.6,23.6,28.4 M96.9,28.7c2.7-0.6,6,1.4,5.1,5.1c-0.2,0.6-1.7,0.7-1.7,0c0.2-3.1-1.3-3.4-3.3-3.3
				C96.2,30.5,96.3,28.8,96.9,28.7 M85.1,23.2c2.7-1.5,8.1-1.3,9.8,3.6c0.3,0.8-0.8,2.2-1.5,1c-2.1-3.8-5.4-3.8-8.1-2.7
				C84.7,25.3,84.1,23.7,85.1,23.2 M73.6,17.5c2.5-0.9,6.7-1.3,7.8,2.9c0.3,1.2-1.1,1.7-1.4,0.9c-1.2-3-3.3-2.9-5.9-2.1
				C72.9,19.6,73.2,17.7,73.6,17.5 M53.4,12.8c1.8-2.9,11.1-5.6,15.9,2.6c0.5,0.9-0.2,1.4-0.7,1.8c-0.4,0.3-0.6-0.3-0.9-0.8
				c-4.1-6.5-11.4-4.8-13.4-1.8C53.9,15.3,52.9,13.7,53.4,12.8 M38.3,13.3c1.6-2.6,7.3-6.6,12.3-2.2c0.6,0.5-0.1,2.3-0.7,1.9
				c-4.6-3.2-8.1-0.6-10,1.7C38.9,15.7,38,13.9,38.3,13.3 M11.4,31.6c-1.9,0-3.4,0-4.8,1.5c-1.4,1.6-1.1,2.4-1.4,2.7
				c-0.4,0.4-1.4-0.3-1.4-1.1c0.1-3.7,4.5-5.1,7.1-4.8C12.1,30,12.3,31.6,11.4,31.6 M19.2,25.4c-2.8,0.3-3.6,1.7-4.1,3.3
				c-0.2,0.6-1.8,0.2-1.5-1c0.7-3.5,4.5-4.3,5.8-4C19.8,23.7,19.7,25.3,19.2,25.4 M21.6,21.7c0.6-3.1,3.5-7.5,10.3-5.8
				c0.8,0.2,0.3,2.3-0.6,2c-4.9-2-7.4,1.8-8.2,4.8C23,23.1,21.3,22.9,21.6,21.7"/>
		</g>
		<path class="st0" d="M78.5,71.1c-1.3-1.6-2.2-3.7-3.7-4.6c-0.7-0.4-1.2-1.2-0.3-1.8c1-0.3,1.9,0.6,3,2.2c0.3,0.4,0.7,0.8,1,1.2
			c1.7,1.9,1.9,3.9,3.5,3.9c2.1,0.1,4-0.4,5.4-1.2c4.3,1.9,12.3,1.1,14.3-0.3c3.8-2.6,1.4-8-2.3-10c-7.7-3.7-14.6-0.7-16.5,0.2
			c-1.7-1.2-4.6-1.7-8.3-1.6c-4,0.3-5.9,0.8-8.5,2.2c-4.8-2.8-11.5-2.7-16.3,0c-1.9-1.6-5.6-2.1-9.3-2c-3,0.2-5.9,0.6-7.6,1.7
			c-2.1-1.5-9.2-4.3-17.5-0.8c-1.8-0.6-5.5-2.7-10.6-1c-6.2,2.1-5.3,7.7-3.3,10.3c2.7,3.7,7.9,3,9.6,1.2c-0.4-1-1.2-1.8-2-2.8
			c-0.7-0.9-1.4-1.6-1.8-1.7c-1.4,0-0.9-1.5-0.4-1.6c1.6-0.6,3.6,2.2,5.5,4.4c1,1.2,1.5,3.1,2.8,3.1c2.9-0.1,4.2-0.9,5.2-1.5
			c1.7,1,9.7,2.5,15.9,0.1c0.8,0.6,4.2,2.4,8.5,0.2c-1.7-1.8-2.5-3.6-4.1-4.8c-1.1-0.5-0.9-1.5-0.3-1.7c1.1-0.3,2.3,0.9,3.3,2.2
			c0.6,0.8,1.3,1.7,1.9,2.4c1.2,1.4,2.2,3,3.3,3.1c2.4,0.1,3.7-0.6,4.7-1.4c0.7,0.5,1.6,0.9,3.1,1.2c1.1,0.2,2.5,0.3,4.7,0.4
			c2.9,0,5-0.3,6.3-0.7c0.9-0.3,1.6-0.7,1.9-1C69.9,70.5,73.9,73,78.5,71.1z M22.1,69.2c-2.3-1-4-6.2-4.7-7
			c-0.2-0.3,3.9-1.8,8.3-1.5c7.5,0.6,7.7,5.3,9.4,7.6C35.8,69.2,29,71.1,22.1,69.2z M55.9,69.5c-2.3-1-4-6.3-4.7-7
			c-0.3-0.3,4.1-1.8,8.4-1.4c7.5,0.6,7.5,5.3,9.3,7.6C69.6,69.6,62.8,71.5,55.9,69.5z M101.8,68c-0.6,1.4-5.3,3.2-12.2,1.2
			c-2.3-1-4.1-6.3-4.7-6.9c-0.3-0.3,3.9-1.8,8.3-1.5C100.6,61.4,102.5,66.4,101.8,68z"/>
	</g>
</g>
</svg>
