<?xml version="1.0" encoding="utf-8"?>
<!-- Generator: Adobe Illustrator 21.1.0, SVG Export Plug-In . SVG Version: 6.00 Build 0)  -->
<svg version="1.1" id="Layer_1" xmlns="http://www.w3.org/2000/svg" xmlns:xlink="http://www.w3.org/1999/xlink" x="0px" y="0px"
	 viewBox="0 0 402 192" style="enable-background:new 0 0 402 192;" xml:space="preserve">
<style type="text/css">
	.st0{fill:#FFFFFF;}
	.st1{fill:#231F20;}
	.st2{fill:#E11B22;}
</style>
<g>
	<g>
		<g>
			<path class="st0" d="M39.3,25.6c0.2,0.3,0.5,0.8,0.9,1.4c1,1.7,2.6,7.9,4.6,10c1.1-0.7,2.9-1.7,4-2c-0.2-0.4-1.4-2.3-2.6-4
				c-2.4-3.2-4.1-4.9-4.3-5.2C41.1,25.8,40,25.8,39.3,25.6z"/>
			<path class="st0" d="M57.4,33.9c0.5-3.3-0.6-8.7-1.3-10.1c-0.8-0.2-1.7-0.5-2.4-0.8c-0.1,0.4-0.7,2.6-0.9,5.9
				c-0.1,1.8-0.1,4.4,0.3,5C54.2,33.8,56,33.8,57.4,33.9z"/>
			<path class="st0" d="M73.1,53.3c0-9.9-7.7-17.6-17.6-17.6c-9.7,0-17.6,7.9-17.6,17.6c0,0.5,0.1,1.4,0.3,2.4
				c5.1-1.2,11.8-1,14.8,1.4c4.8-2.8,11.8-2.9,16.9,0c1-0.5,2.1-0.9,3.1-1.2C73,54.9,73.1,53.9,73.1,53.3z M51.6,47.3
				c-0.1,1.1-1,2-2.1,1.9c-1.1-0.1-2-1-1.9-2.1l0-0.2c-0.2-0.3-1.1-0.6-2.5,0.3c-0.7,0.4-1.5,0.1-0.3-0.9c1.3-1.1,2.5-1.7,3.5-1.9
				l0,0c1.8-0.1,4.1,0.2,5.2,0.7c0.5,0.2,0,2.4-0.1,2.4c-0.4-0.1-1.2-0.4-1.8-0.3L51.6,47.3z M57.5,53.4c-0.4,1-4.1,1.4-4.7,0
				c-0.3-0.5-0.6-1.9-0.1-1.6c0.8,0.5,3.8,0.1,4.4,0c0.5-0.1,0.2-0.8,0.5-0.7C57.8,51.1,57.8,52.4,57.5,53.4z M66.2,47.6
				c-0.9-0.8-2.1-1.1-2.6-0.8l0,0.2c0.1,1.1-0.7,2.1-1.9,2.2c-1.1,0.1-2.1-0.7-2.2-1.9v-0.1c-0.7-0.2-1.9,0.2-2.1,0.1
				c-0.1,0-0.6-2.1,0.1-2.4c1.8-0.7,7.5-1.1,9.1,2.1C66.8,47.5,66.7,48,66.2,47.6z"/>
			<path class="st0" d="M67.2,25.4c-2.1,1.8-5.2,6-5.6,9.4c1,0.4,3.5,1.6,3.9,1.9c2.5-2.5,2-5.3,3-7.4c0.4-0.9,0.8-1.6,1.1-2.1
				C68.8,26.8,67.9,26.1,67.2,25.4z"/>
			<path class="st0" d="M22,86.1c-2.6,0.1-5.2,1.1-6.7,0.9v17.7c0,0,1,0.7,3.6,0c3.4-1,4.9,0.1,4.9,0.1V86.9
				C23.8,86.9,23.4,86.1,22,86.1z"/>
			<path class="st0" d="M46.2,78.3H3.9v38.4h42.4C46.2,116.7,46.2,78.3,46.2,78.3z M39.8,108.8H27.7v1.5h-5v-1.5H10.5V88.3h2.6v-3.7
				c2.6,0.6,6.9-0.8,8.8-0.8c2.1,0,3.2,0.9,3.2,0.9s1.1-0.9,3.2-0.9c1.9,0,6.2,1.4,8.8,0.8v3.7h2.6L39.8,108.8L39.8,108.8z"/>
			<path class="st0" d="M88.9,86.1c-1.4,0-1.8,0.8-1.8,0.8v17.8c0,0,1.5-1.1,4.9-0.1c2.6,0.8,3.6,0,3.6,0V87
				C94.1,87.2,91.5,86.2,88.9,86.1z"/>
			<path class="st0" d="M28.3,86.1c-1.4,0-1.8,0.8-1.8,0.8v17.8c0,0,1.5-1.1,4.9-0.1c2.6,0.8,3.6,0,3.6,0V87
				C33.5,87.2,30.9,86.2,28.3,86.1z"/>
			<path class="st0" d="M79.6,32.1c-0.5,0.3-1.5,0.9-1.9,1.2c-2.4,1.8-7.7,4.3-9,5.7c1,0.9,2.4,2.4,3.1,3.7c0.6,0,2.3-1.4,5.7-5.4
				c1.1-1.3,2.2-1.9,4.3-3.1C81,33.6,80.2,32.9,79.6,32.1z"/>
			<path class="st0" d="M87.4,142.2V160c0,0,1.5-1.1,4.9-0.1c2.6,0.8,3.6,0,3.6,0v-17.7c-1.5,0.3-4.1-0.8-6.7-0.9
				C87.8,141.4,87.4,142.2,87.4,142.2z"/>
			<path class="st0" d="M76.2,142.3v17.7c0,0,1,0.7,3.6,0c3.4-1,5,0.1,5,0.1v-17.8c0,0-0.4-0.8-1.8-0.8
				C80.3,141.5,77.7,142.6,76.2,142.3z"/>
			<path class="st0" d="M82.6,86.1c-2.6,0.1-5.2,1.1-6.7,0.9v17.7c0,0,1,0.7,3.6,0c3.4-1,4.9,0.1,4.9,0.1V86.9
				C84.4,86.9,84,86.1,82.6,86.1z"/>
			<path class="st0" d="M107,78.3H64.7v38.4H107V78.3z M100.7,108.8H88.6v1.5h-5v-1.5H71.4V88.3H74v-3.7c2.6,0.6,6.9-0.8,8.8-0.8
				c2.1,0,3.2,0.9,3.2,0.9s1.1-0.9,3.2-0.9c1.9,0,6.2,1.4,8.8,0.8v3.7h2.6L100.7,108.8L100.7,108.8z"/>
			<path class="st0" d="M11.3,56.4c-3.2-0.1-5.9,0.8-6.9,2.5C2.7,62,4.7,64.7,6,65.4c2.8,1.7,5.5,0.6,5.7-0.5
				c-0.8-0.9-2.1-2.8-2.8-2.8c-1.1,0-1-1.4-0.2-1.7c1.9-0.6,3.7,3,6.4,4.9c2.4,1.7,5.8,0.5,5.8-0.2C19.4,63.7,17.6,56.6,11.3,56.4z"
				/>
			<path class="st0" d="M49.8,57.7c-3.7-1.8-9-1.2-13.4,0.4c1.2,1.6,3.2,5.4,4.3,6.7c2,2.5,5.5,1.2,5.6,0.5
				c-0.2-0.5-2.1-2.9-2.8-3.3c-0.7-0.4-1-1-0.7-1.5c0.6-0.9,2.1,0,2.8,0.9c0.8,1,3,3.7,3.7,4.2c2.2,1.5,6.3,0.7,6-0.6
				C54,63.2,53.4,59.4,49.8,57.7z"/>
			<path class="st0" d="M41.8,39.4c-3-2.5-5.9-3-10.3-5.1c-1-0.5-2.7-1.6-2.8-1.7c-0.1-0.1-0.3-0.2-0.6-0.4c-0.3,0.8-0.8,2-1.3,2.6
				c0.7,0.9,5.7,6.6,12.1,8.4C39.6,42,40.7,40.6,41.8,39.4z"/>
			<path class="st0" d="M36.9,46.9c-1.1-1.1-3.4-2.1-6.4-1.9c-6.1,0.5-10.1,0.1-12.3-0.2c-3.9-0.6-6.4,0-8.3,0c-6,0,0.2,0.5,0.9,0.8
				c2.8,1.1,8.5,2.5,12.9,2.2c2.2-0.2,5.8,1.2,6.4,1.4c1.6,0.6,4.5,1.5,6.1,1.5C36.2,49.9,36.6,47.8,36.9,46.9z"/>
			<path class="st0" d="M75.8,64.9c2.2,2.3,5.3,1.3,5.4,0.6c-0.3-0.5-1.7-2.5-2.5-3c-0.7-0.4-1.1-1-0.8-1.5c0.6-0.9,1.8-0.3,2.6,0.7
				c0.8,1,2.9,3.8,3.7,4.2c2,1.1,6.3,0.7,5.9-0.6c-1.2-1.9-2-5.7-5.6-7.4c-3.7-1.7-8.5-1.3-12.9,0.3C72.6,59.7,74.7,63.7,75.8,64.9z
				"/>
			<path class="st0" d="M105.9,43.8c-0.3,0-1.4-0.2-2.2-0.2c-1,0-7.3,0-9,0.3c-3.5,0.6-10.4,0.3-14.1,0.1c-2.8-0.1-6,1-7,1.5
				c0,0,1.1,2.7,1.1,4.5c1.2,0.2,2.3-1.3,5.7-1.2c3.5,0.1,12.3-0.4,16.7-2.1c3.3-1.3,6.1-1.9,8.3-2.4
				C106.2,44.2,107.4,44.1,105.9,43.8z"/>
			<path class="st0" d="M23.8,160v-17.8c0,0-0.4-0.8-1.8-0.8c-2.6,0.1-5.2,1.1-6.7,0.9v17.7c0,0,1,0.7,3.6,0
				C22.3,158.9,23.8,160,23.8,160z"/>
			<path class="st0" d="M26.9,26.2c0.3-0.2,0.7-0.2,1-0.1c3,1,7.3,0.3,9.3-2.9c0.3-0.4,0.8-0.6,1.3-0.4c2.1,0.8,6.3,1.2,11.5-4
				c0.4-0.4,1-0.3,1.4,0c4.5,3.6,9.2,3.9,14,0.7c0.3-0.2,0.7-0.5,1-0.3c0.3,0.1,0.6,0.4,0.6,0.8C68.6,27,76,26.4,78.2,26
				c0.3,0,0.6,0,0.8,0.2c0.2,0.2,0.4,0.4,0.4,0.7c0.2,1.7,2.1,4.9,5.2,6.5c2.7,1.4,5.7,1.3,8.8-0.3c0.3-0.2,0.7-0.2,1,0
				c4,2.1,7.6,2.3,9.9,0.3c1.6-1.4,2.3-3.6,1.6-5.5c-0.7-2.1-2.8-3.5-5.9-3.7c-0.5,0-0.9-0.4-1-0.9c-0.3-1.7-1.2-3.1-2.8-4.1
				c-2.4-1.4-5.8-1.6-9.3-0.5c-0.3,0.1-0.6,0.1-0.9-0.1c-0.3-0.2-0.5-0.4-0.5-0.8c-0.2-1.3-0.8-3.1-2.4-4.1c-1.7-1.1-4.4-1-7.6,0.1
				c-0.5,0.2-1.1,0-1.3-0.5c-2.1-4-5-6.6-8.5-7.5c-3.1-0.8-6.5-0.2-9.5,1.6c-0.4,0.2-0.9,0.2-1.2,0c-2.9-2.2-6.4-2.9-9.6-1.9
				c-3.1,0.9-5.5,3.4-6.6,6.8c-0.1,0.3-0.3,0.5-0.6,0.6c-0.3,0.1-0.6,0.1-0.9,0c-4.7-1.9-8.6-1.9-11.2,0.1c-2.2,1.7-2.9,4.4-2.8,5.2
				c0.1,0.5-0.3,1-0.8,1.2l-1.1,0.3c-2.6,0.6-5.3,1.2-6.2,5.4c-0.1,0.5-0.5,0.8-1,0.9c-4.6,0.5-7.6,2.1-8.2,4.6
				c-0.4,1.8,0.4,3.8,2,4.8c1.6,1.1,3.6,1,5.4-0.3c0.3-0.2,0.7-0.3,1-0.1c2.7,1,7,0.8,9.7-1.3c1.9-1.5,2.7-3.8,2.2-6.7
				C26.5,26.8,26.6,26.4,26.9,26.2z M99.3,26.5c2.7-0.6,6,1.4,5,5c-0.2,0.6-1.7,0.7-1.6,0c0.2-3-1.3-3.3-3.3-3.3
				C98.6,28.3,98.7,26.6,99.3,26.5z M87.7,21.1c2.6-1.5,8-1.2,9.7,3.6c0.3,0.8-0.8,2.2-1.5,1c-2-3.7-5.3-3.7-8-2.7
				C87.2,23.2,86.7,21.6,87.7,21.1z M76.3,15.5c2.4-0.9,6.6-1.2,7.7,2.8c0.3,1.1-1.1,1.7-1.4,0.9c-1.1-3-3.3-2.8-5.8-2
				C75.7,17.6,75.9,15.7,76.3,15.5z M56.3,10.9c1.8-2.9,11-5.5,15.7,2.6c0.5,0.9-0.2,1.4-0.7,1.8c-0.4,0.3-0.6-0.3-0.8-0.7
				c-4-6.4-11.3-4.7-13.2-1.7C56.9,13.4,55.8,11.8,56.3,10.9z M41.5,11.4c1.6-2.6,7.2-6.5,12.1-2.2c0.6,0.5-0.1,2.3-0.7,1.9
				c-4.5-3.1-8-0.6-9.9,1.6C42,13.8,41.1,12,41.5,11.4z M14.9,29.3c-1.9,0-3.4,0-4.7,1.5c-1.4,1.5-1.1,2.4-1.3,2.7
				c-0.4,0.4-1.4-0.3-1.3-1.1c0.1-3.6,4.4-5,7-4.7C15.5,27.8,15.8,29.3,14.9,29.3z M22.5,23.3c-2.8,0.3-3.6,1.6-4.1,3.2
				c-0.2,0.6-1.7,0.2-1.5-1c0.7-3.4,4.4-4.2,5.8-3.9C23.2,21.6,23.1,23.2,22.5,23.3z M24.9,19.6c0.6-3,3.5-7.4,10.2-5.7
				c0.8,0.2,0.3,2.3-0.5,1.9c-4.9-1.9-7.3,1.8-8.1,4.7C26.3,21,24.7,20.9,24.9,19.6z"/>
			<path class="st0" d="M64.7,185.3c10.7-3.1,21.2-7.2,28.4-13.8c2.5-2.3,4.6-4.7,6.4-7.4H88.6v1.5h-5v-1.5H71.4v-20.5H74v-3.7
				c2.6,0.6,6.9-0.8,8.8-0.8c2.1,0,3.2,0.9,3.2,0.9s1.1-0.9,3.2-0.9c1.9,0,6.2,1.4,8.8,0.8v3.7h2.6v18.5c3.9-6.7,5.7-15,6.3-26.6
				v-1.7H64.7V185.3z"/>
			<path class="st0" d="M31.4,159.9c2.6,0.8,3.6,0,3.6,0v-17.7c-1.5,0.3-4.1-0.8-6.7-0.9c-1.4,0-1.8,0.8-1.8,0.8V160
				C26.5,160,28,158.9,31.4,159.9z"/>
			<path class="st0" d="M4,135.5c0.4,10.6,2.4,19.3,6.5,26.5v-18.3h2.6v-3.7c2.6,0.6,6.9-0.8,8.8-0.8c2.1,0,3.2,0.9,3.2,0.9
				s1.1-0.9,3.2-0.9c1.9,0,6.2,1.4,8.8,0.8v3.7h2.6v20.5H27.7v1.5h-5v-1.5H11.8c1.7,2.6,3.8,5,6.2,7.3c6.7,6.3,17.3,10.6,28.2,13.8
				v-51.4H3.9L4,135.5z"/>
		</g>
		<g>
			<g>
				<path class="st1" d="M111.7,42.7c-0.6-0.5-7.4-1.3-8.4-1.3c-1,0-6.9,0.1-9.1,0.4c-3.5,0.5-9.5,0.5-14,0
					c-1.6-0.2-3.5,0.2-4.9,0.7c0.3-0.2,0.6-0.5,1-0.9c1.3-1.4,2.8-4,5.5-5.3c0.7-0.3,1.3-0.7,1.9-1c2.2,1.1,5.8,1.9,10.1-0.2
					c6.5,3.3,10.4,1.1,11.8-0.1c1.7-1.4,2.6-3.5,2.6-5.6c0-0.7-0.1-1.5-0.4-2.2c-0.9-2.8-3.5-4.6-7.1-5c-0.2-0.8-0.5-1.5-0.9-2.1
					c0.4-0.5,0.8-1,1.1-1.3c0.3-0.4,1.4-2.2-1.5-0.7c-0.1,0.1-0.4,0.2-0.8,0.4c-0.4-0.4-0.8-0.8-1.4-1.1c-2.7-1.6-6.3-1.8-10-0.8
					c-0.5-2-1.5-3.7-3.1-4.6c-1.6-1-3.7-1.3-6.1-0.9c0.2-0.4,0.3-0.7,0.4-0.9c1.1-2.3,0.5-2.8-0.6-1.8c-1.3,1.1-2.1,1.9-2.7,2.6
					c-2.3-3.7-5.3-6.2-8.9-7.1c-3.1-0.8-6.5-0.4-9.5,1.1c-0.2-1.5-0.4-2.8-0.6-3.5c-0.6-1.8-1.2-0.4-1.3,0.2c-0.1,0.8-0.3,1.8-0.5,3
					c-3-1.6-6.4-2.1-9.5-1.1c-3.5,1.1-6.1,3.6-7.6,7.2c-1.3-0.4-2.4-0.7-3.5-0.9c-0.6-0.8-1.6-1.9-2.9-3c-0.9-0.8-1.6-0.4-1.1,1.2
					c0.2,0.6,0.4,1.1,0.6,1.6c-2.5,0.1-4.3,0.9-5.5,1.9c-2.4,1.8-3.4,4.5-3.6,6.2c-0.1,0-0.3,0.1-0.3,0.1c-2,0.5-4.7,1.2-6.4,3.9
					c-0.3-0.2-0.5-0.3-0.6-0.4c-5.1-3.4-2.7,1-0.8,2.9c-6.7,1-8.6,4.2-9.1,6.1c-0.1,0.5-0.2,1-0.2,1.5c0,2.2,1.1,4.4,3.1,5.7
					c2.3,1.5,5,1.4,7.4-0.1c3.2,1,7.6,0.9,10.9-1.5c1.9,2,3.4,3.4,4.2,4.2c2,2,5,3.5,6.5,4.1c-1.5-0.6-4-1.2-6.5-0.9
					c-5.4,0.8-9-0.2-11.3-0.5c-3.8-0.4-7.7,0.3-9.6,0.3c-2.1,0-5,1-6.4,1.2c-1.5,0.2-1.4,1.2,0.7,1.8c2.1,0.6,6.1,0.9,7.1,1.4
					c3.4,1.5,9.2,2.7,13.2,2.4c2.9-0.2,5.8,1.2,6.5,1.4c1.4,0.4,5,1.4,6.4,1.4c0-0.1,0,2,0.1,3c-0.5,0.2-1.1,0.4-1.5,0.6
					c-1.6-1-8.7-3.8-17.3-0.3c-1.8-0.6-5.7-2.8-10.9-1C-0.1,57,0.9,63,3.1,65.7c2.9,3.7,8.3,2.9,9.8,1.1c3.5,2.3,7.1,1.5,9.6-0.1
					c1.7,1,10.1,2.7,16.4,0.1c0.9,0.6,4.4,2.5,8.8,0.2c2.6,1.5,6.9,1.7,9.1-0.3c0.8,0.7,3.2,1.6,8.3,1.6c6.1-0.1,7.5-1,8.4-1.7
					c1.3,0.6,4.7,2.4,9,0.6c2.3,1.4,6.9,1.4,9.3-0.3c4.5,2,12.7,1.1,14.8-0.3c3.7-2.6,1.9-7.8-2.2-10.2c-8-4-15.4-0.9-17.4,0.1
					c-2.4-1.6-7.3-2.6-12.4-1.7c0.1-0.6,0-1.3,0-2.1c0-0.1,0-0.2,0-0.2c1-0.3,2.5-1.4,5.4-1.6c4-0.3,13.4-0.1,18.1-2.6
					c2.7-1.4,12-3.2,13.3-3.9C112.7,43.7,112.4,43.2,111.7,42.7z M77.5,37.3c-3.4,4-5.1,5.4-5.7,5.4c-0.6-1.3-2.1-2.8-3.1-3.7
					c1.2-1.4,6.5-3.8,9-5.7c0.4-0.3,1.4-0.9,1.9-1.2c0.6,0.8,1.4,1.5,2.2,2.1C79.7,35.4,78.6,36.1,77.5,37.3z M28.6,28.7
					c2.8,0.5,6.2-0.2,8.6-2.4c3,4.7,3,9,5.9,12c-3.6-3.5-6.8-3.4-11.9-6.2c-0.9-0.5-2.2-1.3-2.6-1.5c0,0,0,0,0,0
					c0.1-0.4,0.1-0.9,0.1-1.4C28.7,29,28.6,28.8,28.6,28.7z M50.6,34l0.1,0.2c0,0-1.6-2.4-1.8-2.7c-0.5-0.8-1.2-1.7-2-2.6
					c-1.2-1.5-2.3-2.7-3.1-3.6c2.1-0.5,4.4-1.7,6.9-4.1c0.3,0.2,0.5,0.3,0.8,0.5c-0.1,0.8-0.3,1.5-0.4,2.1c-0.6,3.2-0.6,5.6-0.7,6.7
					C50.5,31.5,50.6,33,50.6,34z M46.1,31c1.3,1.6,2.4,3.6,2.6,4c-1.1,0.4-2.9,1.3-4,2c-2-2.1-3.6-8.3-4.6-10
					c-0.4-0.6-0.7-1.1-0.9-1.4c0.7,0.2,1.8,0.2,2.5,0.2C42,26.1,43.7,27.8,46.1,31z M55.5,35.7c9.9,0,17.6,7.7,17.6,17.6
					c0,0.7,0,1.7-0.2,2.6c-1.1,0.3-2.1,0.7-3.1,1.2c-5.1-3-12.1-2.8-16.9,0c-3-2.4-9.7-2.6-14.8-1.4c-0.2-1-0.3-1.9-0.3-2.4
					C37.9,43.5,45.7,35.7,55.5,35.7z M52.9,28.9c0.2-3.3,0.8-5.5,0.9-5.9c0.7,0.3,1.5,0.6,2.4,0.8c0.6,1.4,1.7,6.8,1.3,10.1
					c-1.5-0.1-3.2-0.1-4.3,0C52.9,33.4,52.8,30.7,52.9,28.9z M68.5,29.3c-1,2.1-0.5,4.9-3,7.4c-0.4-0.3-2.9-1.5-3.9-1.9
					c0.4-3.4,3.6-7.6,5.6-9.4c0.6,0.7,1.5,1.4,2.4,1.8C69.4,27.6,68.9,28.4,68.5,29.3z M71.2,28.6c0.1-0.1,0.2-0.3,0.3-0.5
					c1.9,0.6,4,0.8,6,0.6c0.2,0.7,0.5,1.4,0.9,2.1c0,0,0,0,0,0c-1,0.5-4.1,2.6-8.5,5.1c-1.2,0.6-1.9,1.3-2.3,1.7
					c0.5-0.7,1.1-1.5,1.5-2.5C69.8,33,69.6,31.4,71.2,28.6z M60.4,31.2c-0.5,1.2-0.7,1.9-0.9,2.6c0.4-2.6-0.3-6.5-1.1-9.8
					c2.3,0,4.6-0.6,6.9-1.9c0.2,0.5,0.4,1,0.7,1.4C64.7,24.7,61.6,28.1,60.4,31.2z M24.3,33.9c-2.6,2.1-7,2.3-9.7,1.3
					c-0.3-0.1-0.7-0.1-1,0.1c-1.8,1.3-3.7,1.4-5.4,0.3c-1.6-1.1-2.4-3.1-2-4.8c0.6-2.5,3.6-4.2,8.2-4.6c0.5,0,0.9-0.4,1-0.9
					c0.8-4.2,3.5-4.8,6.2-5.4l1.1-0.3c0.5-0.1,0.9-0.6,0.8-1.2c-0.1-0.8,0.6-3.5,2.8-5.2c2.6-2,6.5-2,11.2-0.1
					c0.3,0.1,0.6,0.1,0.9,0c0.3-0.1,0.5-0.3,0.6-0.6c1.2-3.4,3.5-5.9,6.6-6.8c3.2-1,6.7-0.3,9.6,1.9c0.4,0.3,0.9,0.3,1.2,0
					c2.9-1.9,6.4-2.5,9.5-1.6c3.5,0.9,6.4,3.5,8.5,7.5c0.2,0.5,0.8,0.7,1.3,0.5c3.2-1.1,5.9-1.1,7.6-0.1c1.7,1,2.2,2.8,2.4,4.1
					c0,0.3,0.2,0.6,0.5,0.8c0.3,0.2,0.6,0.2,0.9,0.1c3.4-1.2,6.9-1,9.3,0.5c1.5,0.9,2.5,2.3,2.8,4.1c0.1,0.5,0.5,0.9,1,0.9
					c3,0.2,5.1,1.5,5.9,3.7c0.6,1.9,0,4.1-1.6,5.5c-2.3,1.9-5.9,1.8-9.9-0.3c-0.3-0.2-0.7-0.2-1,0c-3.1,1.6-6.1,1.7-8.8,0.3
					c-3.2-1.6-5-4.8-5.2-6.5c0-0.3-0.2-0.5-0.4-0.7c-0.2-0.2-0.5-0.2-0.8-0.2c-2.2,0.4-9.6,1-11.1-6.1c-0.1-0.3-0.3-0.6-0.6-0.8
					c-0.3-0.1-0.7,0.1-1,0.3c-4.8,3.2-9.5,3-14-0.7c-0.4-0.3-1.1-0.4-1.4,0c-5.2,5.2-9.4,4.8-11.5,4c-0.5-0.2-1,0-1.3,0.4
					c-2,3.2-6.3,3.8-9.3,2.9c-0.4-0.1-0.7-0.1-1,0.1c-0.3,0.2-0.4,0.6-0.4,1C26.9,30.1,26.2,32.4,24.3,33.9z M26.8,34.9
					c0.5-0.6,1-1.8,1.3-2.6c0.3,0.2,0.5,0.3,0.6,0.4c0.1,0,1.8,1.2,2.8,1.7c4.5,2.1,7.3,2.6,10.3,5.1c-1.1,1.2-2.2,2.6-2.9,3.8
					C32.5,41.5,27.5,35.8,26.8,34.9z M30.1,49.1c-0.6-0.2-4.3-1.5-6.4-1.4c-4.5,0.3-10.1-1.1-12.9-2.2c-0.7-0.3-6.8-0.8-0.9-0.8
					c2,0,4.4-0.5,8.3,0c2.3,0.3,6.3,0.7,12.3,0.2c3-0.2,5.2,0.7,6.4,1.9c-0.3,0.9-0.7,3-0.8,3.7C34.6,50.6,31.7,49.7,30.1,49.1z
					 M15,65.3c-2.7-1.9-4.5-5.5-6.4-4.9c-0.8,0.3-0.9,1.7,0.2,1.7c0.7,0,2.1,2,2.8,2.8c-0.2,1-2.9,2.1-5.7,0.5
					C4.7,64.7,2.7,62,4.4,59c1-1.7,3.7-2.6,6.9-2.5c6.3,0.1,8,7.3,9.5,8.6C20.8,65.8,17.5,67,15,65.3z M24.1,65.2
					c-2.4-1.1-4.2-6.5-4.9-7.2c-0.3-0.3,4.2-1.9,8.7-1.5c7.7,0.7,7.7,5.5,9.7,7.9C38.3,65.2,31.3,67.2,24.1,65.2z M49.4,65.7
					c-0.7-0.5-2.9-3.2-3.7-4.2c-0.8-0.9-2.2-1.8-2.8-0.9c-0.4,0.5,0,1.1,0.7,1.5c0.7,0.4,2.6,2.8,2.8,3.3c-0.1,0.7-3.6,2-5.6-0.5
					c-1-1.3-3.1-5.1-4.3-6.7c4.4-1.6,9.6-2.1,13.4-0.4c3.6,1.7,4.2,5.5,5.6,7.4C55.7,66.4,51.6,67.2,49.4,65.7z M59.1,65.6
					c-2.4-1.1-4.2-6.5-4.9-7.2c-0.3-0.3,4.2-1.9,8.7-1.5c7.7,0.7,7.8,5.5,9.7,7.8C73.3,65.6,66.3,67.6,59.1,65.6z M97.8,56.6
					c7.7,0.7,9.6,5.7,8.8,7.4c-0.7,1.4-5.4,3.3-12.6,1.3c-2.4-1.1-4.2-6.5-4.9-7.2C88.8,57.9,93.3,56.2,97.8,56.6z M84.7,57.8
					c3.6,1.7,4.4,5.5,5.6,7.4c0.3,1.3-4,1.7-5.9,0.6c-0.8-0.4-2.9-3.2-3.7-4.2c-0.8-0.9-2-1.6-2.6-0.7c-0.4,0.5,0.1,1.1,0.8,1.5
					c0.8,0.5,2.2,2.5,2.5,3c-0.1,0.7-3.2,1.7-5.4-0.6c-1.1-1.2-3.2-5.2-4-6.8C76.2,56.5,81,56.1,84.7,57.8z M105.4,44.4
					c-2.2,0.5-5,1.1-8.3,2.4c-4.4,1.7-13.1,2.2-16.7,2.1c-3.4-0.1-4.5,1.4-5.7,1.2c-0.1-1.8-1.1-4.5-1.1-4.5c1-0.5,4.2-1.6,7-1.5
					c3.8,0.1,10.6,0.4,14.1-0.1c1.7-0.3,8-0.3,9-0.3c0.7,0,1.9,0.1,2.2,0.2C107.4,44.1,106.2,44.2,105.4,44.4z"/>
				<g>
					<path class="st1" d="M14.9,29.3c-1.9,0-3.4,0-4.7,1.5c-1.4,1.5-1.1,2.4-1.3,2.7c-0.4,0.4-1.4-0.3-1.3-1.1c0.1-3.6,4.4-5,7-4.7
						C15.5,27.8,15.8,29.3,14.9,29.3"/>
					<path class="st1" d="M22.5,23.3c-2.8,0.3-3.6,1.6-4.1,3.2c-0.2,0.6-1.7,0.2-1.5-1c0.7-3.4,4.4-4.2,5.8-3.9
						C23.2,21.6,23.1,23.2,22.5,23.3"/>
					<path class="st1" d="M34.6,15.9c-4.9-1.9-7.3,1.8-8.1,4.7c-0.1,0.4-1.7,0.2-1.5-1c0.6-3,3.5-7.4,10.2-5.7
						C35.9,14.2,35.4,16.2,34.6,15.9"/>
					<path class="st1" d="M52.9,11.1c-4.5-3.1-8-0.6-9.9,1.6c-0.9,1.1-1.8-0.7-1.5-1.3c1.6-2.6,7.2-6.5,12.1-2.2
						C54.1,9.7,53.5,11.5,52.9,11.1"/>
					<path class="st1" d="M71.4,15.3c-0.4,0.3-0.6-0.3-0.8-0.7c-4-6.4-11.3-4.7-13.2-1.7c-0.4,0.6-1.5-1-0.9-1.9
						c1.8-2.9,11-5.5,15.7,2.6C72.6,14.4,71.9,14.9,71.4,15.3"/>
					<path class="st1" d="M82.7,19.3c-1.1-3-3.3-2.8-5.8-2c-1.2,0.4-0.9-1.6-0.5-1.7c2.4-0.9,6.6-1.2,7.7,2.8
						C84.4,19.5,83,20.1,82.7,19.3"/>
					<path class="st1" d="M95.9,25.6c-2-3.7-5.3-3.7-8-2.7c-0.6,0.2-1.2-1.3-0.2-1.9c2.6-1.5,8-1.2,9.7,3.6
						C97.7,25.5,96.6,26.9,95.9,25.6"/>
					<path class="st1" d="M104.3,31.5c-0.2,0.6-1.7,0.7-1.6,0c0.2-3-1.3-3.3-3.3-3.3c-0.8,0-0.7-1.6-0.1-1.7
						C102,25.9,105.2,27.8,104.3,31.5"/>
				</g>
				<g>
					<path class="st1" d="M51.6,47.3c-0.1,1.1-1,2-2.1,1.9c-1.1-0.1-2-1-1.9-2.1l0-0.2c-0.2-0.3-1.1-0.6-2.5,0.3
						c-0.7,0.4-1.5,0.1-0.3-0.9c1.3-1.1,2.5-1.7,3.5-1.9l0,0c1.8-0.1,4.1,0.2,5.2,0.7c0.5,0.2,0,2.4-0.1,2.4
						c-0.4-0.1-1.2-0.4-1.8-0.3L51.6,47.3"/>
					<path class="st1" d="M57.5,53.4c-0.4,1-4.1,1.4-4.7,0c-0.3-0.5-0.6-1.9-0.1-1.6c0.8,0.5,3.8,0.1,4.4,0c0.5-0.1,0.2-0.8,0.5-0.7
						C57.8,51.1,57.8,52.4,57.5,53.4"/>
					<path class="st1" d="M66.2,47.6c-0.9-0.8-2.1-1.1-2.6-0.8l0,0.2c0.1,1.1-0.7,2.1-1.9,2.2c-1.1,0.1-2.1-0.7-2.2-1.9v-0.1
						c-0.7-0.2-1.9,0.2-2.1,0.1c-0.1,0-0.6-2.1,0.1-2.4c1.8-0.7,7.5-1.1,9.1,2.1C66.8,47.5,66.7,48,66.2,47.6"/>
				</g>
			</g>
			<g>
				<path class="st1" d="M64.7,78.3H107v38.4H64.7V78.3z M3.9,78.3h42.4v38.4H3.9V78.3z M46.2,185.2c-10.9-3.2-21.5-7.5-28.2-13.8
					c-2.4-2.3-4.4-4.7-6.2-7.3h10.8v1.5h5v-1.5h12.1v-20.5h-2.6v-3.7c-2.6,0.6-6.9-0.8-8.8-0.8c-2.1,0-3.2,0.9-3.2,0.9
					s-1.1-0.9-3.2-0.9c-1.9,0-6.2,1.4-8.8,0.8v3.7h-2.6V162c-4.1-7.2-6.1-15.9-6.5-26.5l-0.1-1.6h42.4V185.2z M15.3,159.9v-17.7
					c1.5,0.3,4.1-0.8,6.7-0.9c1.4,0,1.8,0.8,1.8,0.8V160c0,0-1.5-1.1-5-0.1C16.2,160.7,15.3,159.9,15.3,159.9z M26.5,160v-17.8
					c0,0,0.4-0.8,1.8-0.8c2.6,0.1,5.2,1.1,6.7,0.9v17.7c0,0-1,0.7-3.6,0C28,158.9,26.5,160,26.5,160z M62.5,185.9l-7,1.8l-7-1.8
					v-54.4H3.9V119h44.6V78.3h14V119H107v12.5H62.5V185.9z M100.7,162.2v-18.5h-2.6v-3.7c-2.6,0.6-6.9-0.8-8.8-0.8
					c-2.1,0-3.2,0.9-3.2,0.9s-1.1-0.9-3.2-0.9c-1.9,0-6.2,1.4-8.8,0.8v3.7h-2.6v20.5h12.1v1.5h5v-1.5h10.9c-1.8,2.6-3.9,5.1-6.4,7.4
					c-7.2,6.5-17.7,10.7-28.4,13.8v-51.4H107v1.7C106.4,147.2,104.6,155.4,100.7,162.2z M96,142.3v17.7c0,0-0.9,0.7-3.6,0
					c-3.4-1-4.9,0.1-4.9,0.1v-17.8c0,0,0.4-0.8,1.8-0.8C91.9,141.5,94.4,142.6,96,142.3z M84.7,142.2V160c0,0-1.5-1.1-5-0.1
					c-2.6,0.8-3.6,0-3.6,0v-17.7c1.5,0.3,4.1-0.8,6.7-0.9C84.3,141.4,84.7,142.2,84.7,142.2z M1.3,75.7v56.8
					c0,18.8,4.7,31.8,14.7,40.9c10,9.1,24.9,13.7,39.5,17.1c15-3.5,29.4-8,39.5-17.1c10-9.1,14.7-22.1,14.7-40.9V75.7H1.3z"/>
				<path class="st1" d="M37.2,88.3v-3.7c-2.6,0.6-6.9-0.8-8.8-0.8c-2.1,0-3.2,0.9-3.2,0.9s-1.1-0.9-3.2-0.9c-1.9,0-6.2,1.4-8.8,0.8
					v3.7h-2.6v20.5h12.1v1.5h5v-1.5h12.1V88.3H37.2z M23.8,104.7c0,0-1.5-1.1-4.9-0.1c-2.6,0.8-3.6,0-3.6,0V87
					c1.5,0.3,4.1-0.8,6.7-0.9c1.4,0,1.8,0.8,1.8,0.8S23.8,104.7,23.8,104.7z M35,104.6c0,0-1,0.7-3.6,0c-3.4-1-4.9,0.1-4.9,0.1V86.9
					c0,0,0.4-0.8,1.8-0.8c2.6,0.1,5.2,1.1,6.7,0.9L35,104.6L35,104.6z"/>
				<path class="st1" d="M98.1,88.3v-3.7c-2.6,0.6-6.9-0.8-8.8-0.8c-2.1,0-3.2,0.9-3.2,0.9s-1.1-0.9-3.2-0.9c-1.9,0-6.2,1.4-8.8,0.8
					v3.7h-2.6v20.5h12.1v1.5h5v-1.5h12.1V88.3H98.1z M84.4,104.7c0,0-1.5-1.1-4.9-0.1c-2.6,0.8-3.6,0-3.6,0V87
					c1.5,0.3,4.1-0.8,6.7-0.9c1.4,0,1.8,0.8,1.8,0.8L84.4,104.7L84.4,104.7z M95.6,104.6c0,0-1,0.7-3.6,0c-3.4-1-4.9,0.1-4.9,0.1
					V86.9c0,0,0.4-0.8,1.8-0.8c2.6,0.1,5.2,1.1,6.7,0.9V104.6z"/>
			</g>
		</g>
		<g>
			<polygon class="st2" points="48.4,185.9 55.5,187.7 62.5,185.9 62.5,131.5 107,131.5 107,119 62.5,119 62.5,78.3 48.4,78.3 
				48.4,119 3.9,119 3.9,131.5 48.4,131.5 			"/>
			<g>
				<path class="st2" d="M27.9,56.5c-4.5-0.4-9,1.2-8.7,1.5c0.7,0.7,2.6,6.1,4.9,7.2c7.2,2,14.1,0,13.4-0.8
					C35.7,62,35.7,57.2,27.9,56.5z"/>
				<path class="st2" d="M62.9,56.9c-4.5-0.4-9,1.2-8.7,1.5c0.7,0.7,2.6,6.1,4.9,7.2c7.2,2,14.1,0,13.4-0.9
					C70.7,62.3,70.7,57.5,62.9,56.9z"/>
				<path class="st2" d="M94,65.3c7.2,2,11.9,0.1,12.6-1.3c0.8-1.7-1.1-6.7-8.8-7.4c-4.5-0.4-9,1.2-8.7,1.5
					C89.8,58.8,91.6,64.3,94,65.3z"/>
			</g>
		</g>
	</g>
	<g>
		<g>
			<path class="st0" d="M156.2,78.2c4.7,0,7.3,0.8,9.5,2.3c2.2,1.6,3.4,3.9,3.4,7.1c0,5.7-5.4,8.5-8.5,9.3V97
				c5.9,0.8,11.2,4.3,11.2,10.9c0,4.6-2.3,7.8-6,10c-3.3,1.8-7.5,2.5-12.4,2.5h-14.9v-1.5c5.4-0.4,6-0.8,6-7.9V87.6
				c-0.1-7.1-0.5-7.5-5.6-7.9v-1.5L156.2,78.2L156.2,78.2z M149.8,96.5h4.1c6.2,0,9.3-2.9,9.3-8.2c0-3.9-1.6-8.2-9.3-8.2
				c-2.1,0-3,0.2-3.6,0.4c-0.4,0.1-0.6,0.4-0.6,1.7L149.8,96.5L149.8,96.5z M149.8,98.4v14.1c0,4.3,0.8,5.8,5.6,5.8
				c5.4,0,10-2.7,10-9.6c0-7.1-5.2-10.3-11.9-10.3C153.6,98.4,149.8,98.4,149.8,98.4z"/>
			<path class="st0" d="M191.1,110.9c0,7.1,0.5,7.5,5.8,7.9v1.5h-17.2v-1.5c5.4-0.4,6-0.8,6-7.9V87.6c0-7.1-0.5-7.5-5.7-7.9v-1.5
				h16.5c4.1,0,7.8,0.6,10.2,2.2c2.6,1.6,4.3,4.5,4.3,8.3c0,5.4-3.3,9.2-8.6,11.3c1.2,1.9,3.8,6.4,5.8,9.3c2.3,3.4,3.7,5.2,5.4,7.1
				c1.4,1.6,2.5,2.7,4.9,3.2l-0.1,1.2h-0.9c-7.5-0.2-9.7-2.5-12.2-6c-2-2.9-4.7-7.7-6.5-10.8c-1-1.7-2.1-2.3-4.1-2.3h-3.5
				L191.1,110.9L191.1,110.9z M191.1,99.9h3.8c2.7,0,4.7-0.3,6.5-1.8c2.8-2.2,3.8-5.4,3.8-8.6c0-6.8-4.9-9.5-9.8-9.5
				c-2.2,0-3.1,0.1-3.6,0.3c-0.4,0.1-0.6,0.5-0.6,1.8V99.9z"/>
			<path class="st0" d="M264.3,98.7c0,13.5-9.4,22.6-21.8,22.6c-12.2,0-20.9-9.3-20.9-21.6c0-10.9,7.6-22.5,22.1-22.5
				C254.9,77.2,264.3,85.9,264.3,98.7z M242,79.3c-7.6,0-14.1,6.3-14.1,18.5c0,12.5,6.5,21.3,16,21.3c7.8,0,14.1-6,14.1-18.1
				C258,87.1,251.3,79.3,242,79.3z"/>
			<path class="st0" d="M286,79.7l-2,0.3c-2.9,0.4-3.3,1-2.4,3.8l8.7,27.6h0.1l10.4-32.5h1.6l11.7,32.5h0.1
				c2.7-8.2,6.4-21.8,7.5-26.5c0.9-3.8,0.6-4.5-2.3-4.9l-1.9-0.3v-1.5h13.7v1.5c-4.3,0.5-4.7,0.8-6.9,6.7
				c-0.6,1.6-5.3,16.5-10.8,34.3h-1.8L300.2,89l-0.1,0.1l-10.6,31.6h-1.8l-11.2-34.8c-1.8-5.4-2.7-5.8-6.4-6.2v-1.5H286L286,79.7
				L286,79.7z"/>
			<path class="st0" d="M375.1,120.8h-1.7l-28.1-34.2h-0.1v16.5c0,6.8,0.3,10.3,0.5,12.3c0.3,2.3,2.1,3.2,6.4,3.4v1.5h-15.6v-1.5
				c3.6-0.1,5.2-1.1,5.6-3.4c0.3-2,0.5-5.5,0.5-12.3V89.1c0-4.7-0.1-5.7-1.2-7.2c-1.2-1.6-3-2-5.7-2.2v-1.5h9.5l27.3,32.7h0.1V95.3
				c0-6.8-0.3-10.3-0.5-12.3c-0.3-2.3-2.1-3.2-6.4-3.4v-1.5h15.6v1.5c-3.6,0.1-5.2,1.1-5.6,3.4c-0.3,2-0.5,5.5-0.5,12.3L375.1,120.8
				L375.1,120.8z"/>
		</g>
	</g>
</g>
</svg>
